<svg width="1100" height="1480" viewBox="0 0 1100 1480"
     xmlns="http://www.w3.org/2000/svg">

  <!-- Scale = 40 units per meter -->

  <defs>
    <style>
      .wall       { stroke: #444; stroke-width: 6; fill: none; stroke-linecap: square; }
      .room-fill  { fill-opacity: 0.22; stroke: none; }
      text        { fill: #ccc; font-family: Arial, sans-serif; pointer-events: none; }
    </style>
  </defs>

  <!-- Background -->
  <rect width="100%" height="100%" fill="#0a0e1a"/>

  <!-- All x-coordinates +40 compared to previous version -->

  <!-- Recreation Room walls -->
  <g class="wall">
    <line x1="740" y1="205" x2="800" y2="205"/>
    <line x1="840" y1="205" x2="900" y2="205"/>
    <line x1="740" y1="425" x2="760" y2="425"/>
    <line x1="800" y1="425" x2="900" y2="425"/>
    <line x1="740" y1="205" x2="740" y2="235"/>
    <line x1="740" y1="275" x2="740" y2="345"/>
    <line x1="740" y1="345" x2="740" y2="365"/>
    <line x1="740" y1="425" x2="740" y2="405"/>
    <line x1="900" y1="205" x2="900" y2="295"/>
    <line x1="900" y1="335" x2="900" y2="425"/>
  </g>

  <rect id="rec-room-fill" class="room-fill"
        x="746" y="211" width="148" height="208"
        fill="#4a6fa5"/>

  <text x="750" y="345" font-size="18">Recreation Room</text>
  <text x="820" y="360" font-size="13" fill="#aaa">5.5 × 4 m</text>

  <!-- Cockpit walls -->
  <g class="wall">
    <line x1="770" y1="85"  x2="870" y2="85"/>
    <line x1="770" y1="205" x2="800" y2="205"/>
    <line x1="840" y1="205" x2="870" y2="205"/>
    <line x1="770" y1="85"  x2="770" y2="205"/>
    <line x1="870" y1="85"  x2="870" y2="205"/>
  </g>

  <rect id="cockpit-fill" class="room-fill"
        x="776" y="91" width="88" height="108"
        fill="#4a6fa5"/>

  <text x="790" y="150" font-size="18">Cockpit</text>
  <text x="790" y="175" font-size="13" fill="#aaa">3 × 2.5 m</text>

  <!-- Storage Room -->
  <g class="wall">
    <line x1="640" y1="205" x2="740" y2="205"/>
    <line x1="640" y1="205" x2="640" y2="345"/>
  </g>

  <rect id="storage-fill" class="room-fill"
        x="646" y="211" width="88" height="128"
        fill="#4a6fa5"/>

  <text x="670" y="280" font-size="16">Storage</text>
  <text x="670" y="300" font-size="12" fill="#aaa">3.5 × 2.5 m</text>

  <!-- Med-Bay -->
  <g class="wall">
    <line x1="580" y1="345" x2="580"  y2="395"/>
    <line x1="420" y1="345" x2="740" y2="345"/>
    <line x1="580" y1="435" x2="580"  y2="485"/>
    <line x1="420" y1="485" x2="740" y2="485"/>
  </g>

  <rect id="medbay-fill" class="room-fill"
        x="586" y="351" width="148" height="128"
        fill="#4a6fa5"/>

  <text x="660" y="420" font-size="16">Med-Bay</text>
  <text x="660" y="440" font-size="12" fill="#aaa">4 × 3.5 m</text>

  <!-- Stasis Room -->
  <g class="wall">
    <line x1="420" y1="345" x2="420" y2="485"/>
  </g>

  <rect id="stasis-room-fill" class="room-fill"
        x="426" y="351" width="148" height="128"
        fill="#4a6fa5"/>

  <text x="470" y="420" font-size="16">Stasis Room</text>
  <text x="470" y="440" font-size="12" fill="#aaa">4 × 3.5 m</text>

  <!-- Galley -->
  <g class="wall">
    <line x1="900" y1="245" x2="1040" y2="245"/>
    <line x1="900" y1="365" x2="1040" y2="365"/>
    <line x1="1040" y1="245" x2="1040" y2="365"/>
  </g>

  <rect id="galley-fill" class="room-fill"
        x="906" y="251" width="128" height="108"
        fill="#4a6fa5"/>

  <text x="970" y="305" font-size="16">Galley</text>
  <text x="970" y="325" font-size="12" fill="#aaa">3.5 × 3 m</text>

  <!-- Main Corridor CH-1 -->
  <g class="wall">
    <line x1="740" y1="825" x2="750" y2="825"/>
    <line x1="810" y1="825" x2="820" y2="825"/>
    <line x1="740" y1="425" x2="740" y2="495"/>
    <line x1="740" y1="555" x2="740" y2="615"/>
    <line x1="740" y1="655" x2="740" y2="825"/>
    <line x1="820" y1="425" x2="820" y2="465"/>
    <line x1="820" y1="505" x2="820" y2="645"/>
    <line x1="820" y1="685" x2="820" y2="825"/>
  </g>

  <rect id="corridor-main-fill" class="room-fill"
        x="746" y="431" width="68" height="388"
        fill="#4a6fa5"/>

  <text x="760" y="625" font-size="18">CH-1</text>
  <text x="760" y="650" font-size="13" fill="#aaa">10 × 2 m</text>

  <!-- Sub Corridor CH-2 -->
  <g class="wall">
    <line x1="420" y1="565" x2="540" y2="565"/>
    <line x1="580" y1="565" x2="740" y2="565"/>
    <line x1="420" y1="485" x2="420" y2="495"/>
    <line x1="420" y1="555" x2="420" y2="565"/>
  </g>

  <rect id="corridor-sub-fill" class="room-fill"
        x="426" y="491" width="308" height="68"
        fill="#4a6fa5"/>

  <text x="560" y="525" font-size="18">CH-2</text>
  <text x="560" y="540" font-size="13" fill="#aaa">8 × 2 m</text>

  <!-- Bathroom / Head -->
  <g class="wall">
    <line x1="520" y1="565" x2="520" y2="685"/>
    <line x1="600" y1="565" x2="600" y2="685"/>
    <line x1="520" y1="685" x2="600" y2="685"/>
  </g>

  <rect id="bathroom-sub-fill" class="room-fill"
        x="526" y="571" width="68" height="108"
        fill="#4a6fa5"/>

  <text x="540" y="625" font-size="18">Head</text>
  <text x="540" y="640" font-size="13" fill="#aaa">3 × 2 m</text>

  <!-- Mainframe room -->
  <g class="wall">
    <line x1="600" y1="705" x2="740" y2="705"/>
    <line x1="600" y1="685" x2="600" y2="705"/>
  </g>

  <rect id="mainframe-sub-fill" class="room-fill"
        x="606" y="571" width="128" height="128"
        fill="#4a6fa5"/>

  <text x="630" y="625" font-size="18">Mainframe</text>
  <text x="630" y="640" font-size="13" fill="#aaa">3.5 × 3.5 m</text>

  <!-- Cargo Bay -->
  <g class="wall">
    <line x1="80" y1="295" x2="420" y2="295"/>
    <line x1="80" y1="695" x2="320" y2="695"/>
    <line x1="360" y1="695" x2="420" y2="695"/>
    <line x1="420" y1="295" x2="420" y2="345"/>
    <line x1="420" y1="565" x2="420" y2="695"/>
    <line x1="80" y1="295" x2="80" y2="695"/>
    <line x1="80" y1="395" x2="80" y2="555" stroke-width="10" stroke="yellow"/>
  </g>

  <rect id="cargo-bay-sub-fill" class="room-fill"
        x="86" y="301" width="328" height="388"
        fill="#4a6fa5"/>

  <text x="220" y="495" font-size="18">Cargo Bay</text>
  <text x="220" y="520" font-size="13" fill="#aaa">10 × 8.5 m</text>

  <!-- Airlock -->
  <g class="wall">
    <line x1="240" y1="695" x2="240" y2="795"/>
    <line x1="240" y1="725" x2="240" y2="765" stroke-width="10" stroke="yellow"/>
    <line x1="380" y1="695" x2="380" y2="795"/>
    <line x1="240" y1="795" x2="380" y2="795"/>
  </g>

  <rect id="airlock-sub-fill" class="room-fill"
        x="246" y="701" width="128" height="88"
        fill="#4a6fa5"/>

  <text x="270" y="735" font-size="18">Air Lock</text>
  <text x="270" y="760" font-size="13" fill="#aaa">3.5 × 2.5 m</text>

  <!-- Engineering -->
  <g class="wall">
    <line x1="630" y1="825" x2="740" y2="825"/>
    <line x1="820" y1="825" x2="930" y2="825"/>
    <line x1="630" y1="825" x2="630" y2="865"/>
    <line x1="630" y1="905" x2="630" y2="1065"/>
    <line x1="930" y1="825" x2="930" y2="1065"/>
    <line x1="630" y1="1065" x2="830" y2="1065"/>
    <line x1="890" y1="1065" x2="930" y2="1065"/>
  </g>

  <rect id="engineering-sub-fill" class="room-fill"
        x="636" y="831" width="288" height="228"
        fill="#4a6fa5"/>

  <text x="740" y="945" font-size="18">Engineering</text>
  <text x="740" y="970" font-size="13" fill="#aaa">7.5 × 6 m</text>

  <!-- Life support -->
  <g class="wall">
    <line x1="490" y1="825" x2="630" y2="825"/>
    <line x1="490" y1="995" x2="630" y2="995"/>
    <line x1="490" y1="825" x2="490" y2="995"/>
  </g>

  <rect id="life-support-sub-fill" class="room-fill"
        x="496" y="831" width="128" height="168"
        fill="#4a6fa5"/>

  <text x="510" y="915" font-size="18">Life Support</text>
  <text x="510" y="940" font-size="13" fill="#aaa">4.5 × 3.5 m</text>

  <!-- Propulsion -->
  <g class="wall">
    <line x1="580" y1="1065" x2="630" y2="1065"/>
    <line x1="930" y1="1065" x2="980" y2="1065"/>
    <line x1="580" y1="1065" x2="580" y2="1385"/>
    <line x1="980" y1="1065" x2="980" y2="1385"/>
    <line x1="580" y1="1385" x2="980" y2="1385"/>
  </g>

  <rect id="propulsion-sub-fill" class="room-fill"
        x="586" y="1071" width="388" height="318"
        fill="#4a6fa5"/>

  <text x="740" y="1195" font-size="18">Propulsion</text>
  <text x="740" y="1220" font-size="13" fill="#aaa">10 × 8 m</text>

  <!-- Captains Quarters -->
  <g class="wall">
    <line x1="900" y1="425" x2="980" y2="425"/>
    <line x1="820" y1="605" x2="980" y2="605"/>
    <line x1="980" y1="605" x2="980" y2="425"/>
  </g>

  <rect id="captains-cabin-sub-fill" class="room-fill"
        x="826" y="431" width="148" height="168"
        fill="#4a6fa5"/>

  <text x="830" y="495" font-size="18">Captains Quarters</text>
  <text x="830" y="520" font-size="13" fill="#aaa">4.5 × 4 m</text>

  <!-- Crew Cabin -->
  <g class="wall">
    <line x1="980" y1="605" x2="980" y2="745"/>
    <line x1="820" y1="745" x2="980" y2="745"/>
  </g>

  <rect id="crew-quarters-sub-fill" class="room-fill"
        x="826" y="611" width="148" height="128"
        fill="#4a6fa5"/>

  <text x="850" y="655" font-size="18">Crew Cabin</text>
  <text x="850" y="680" font-size="13" fill="#aaa">4 × 3.5 m</text>

  <!-- ═══════════════════════════════════════════════════ -->
  <!-- POWER SOURCE ICONS — driven by game.js             -->
  <!-- ═══════════════════════════════════════════════════ -->

  <!-- REACTOR: reactor_core  (Engineering) -->
  <g id="icon-reactor_core" class="power-icon" transform="translate(700,1000)">
    <circle r="26" fill="#001a00" stroke="#00ff44" stroke-width="2"/>
    <circle r="16" fill="#001a00" stroke="#00ff44" stroke-width="1.5"/>
    <circle r="6"  fill="#00ff44"/>
    <line x1="0" y1="-9"  x2="0"  y2="-18" stroke="#00ff44" stroke-width="1.5" stroke-linecap="round"/>
    <line x1="7" y1="5"   x2="13" y2="9"   stroke="#00ff44" stroke-width="1.5" stroke-linecap="round"/>
    <line x1="-7" y1="5"  x2="-13" y2="9"  stroke="#00ff44" stroke-width="1.5" stroke-linecap="round"/>
    <line x1="0"  y1="-22" x2="0"  y2="-26" stroke="#00ff44" stroke-width="1" stroke-linecap="round"/>
    <line x1="0"  y1="22"  x2="0"  y2="26"  stroke="#00ff44" stroke-width="1" stroke-linecap="round"/>
    <line x1="22" y1="0"   x2="26" y2="0"   stroke="#00ff44" stroke-width="1" stroke-linecap="round"/>
    <line x1="-22" y1="0" x2="-26" y2="0"   stroke="#00ff44" stroke-width="1" stroke-linecap="round"/>
    <line x1="16"  y1="-16" x2="18" y2="-18" stroke="#00ff44" stroke-width="1" stroke-linecap="round"/>
    <line x1="-16" y1="-16" x2="-18" y2="-18" stroke="#00ff44" stroke-width="1" stroke-linecap="round"/>
    <line x1="16"  y1="16"  x2="18" y2="18"  stroke="#00ff44" stroke-width="1" stroke-linecap="round"/>
    <line x1="-16" y1="16" x2="-18" y2="18"  stroke="#00ff44" stroke-width="1" stroke-linecap="round"/>
  </g>

  <!-- REACTOR: propulsion_reactor  (Propulsion Bay, top-right) -->
  <g id="icon-propulsion_reactor" class="power-icon" transform="translate(780,1280)">
    <circle r="26" fill="#001a00" stroke="#00ff44" stroke-width="2"/>
    <circle r="16" fill="#001a00" stroke="#00ff44" stroke-width="1.5"/>
    <circle r="6"  fill="#00ff44"/>
    <line x1="0" y1="-9"  x2="0"  y2="-18" stroke="#00ff44" stroke-width="1.5" stroke-linecap="round"/>
    <line x1="7" y1="5"   x2="13" y2="9"   stroke="#00ff44" stroke-width="1.5" stroke-linecap="round"/>
    <line x1="-7" y1="5"  x2="-13" y2="9"  stroke="#00ff44" stroke-width="1.5" stroke-linecap="round"/>
    <line x1="0"  y1="-22" x2="0"  y2="-26" stroke="#00ff44" stroke-width="1" stroke-linecap="round"/>
    <line x1="0"  y1="22"  x2="0"  y2="26"  stroke="#00ff44" stroke-width="1" stroke-linecap="round"/>
    <line x1="22" y1="0"   x2="26" y2="0"   stroke="#00ff44" stroke-width="1" stroke-linecap="round"/>
    <line x1="-22" y1="0" x2="-26" y2="0"   stroke="#00ff44" stroke-width="1" stroke-linecap="round"/>
    <line x1="16"  y1="-16" x2="18" y2="-18" stroke="#00ff44" stroke-width="1" stroke-linecap="round"/>
    <line x1="-16" y1="-16" x2="-18" y2="-18" stroke="#00ff44" stroke-width="1" stroke-linecap="round"/>
    <line x1="16"  y1="16"  x2="18" y2="18"  stroke="#00ff44" stroke-width="1" stroke-linecap="round"/>
    <line x1="-16" y1="16" x2="-18" y2="18"  stroke="#00ff44" stroke-width="1" stroke-linecap="round"/>
  </g>

  <!-- BATTERY: BAT-LS-01  (Life Support, top-left) -->
  <!-- Body at (505,836), size 32x46, terminal nub 10x6 centred on top -->
  <g id="icon-BAT-LS-01" class="power-icon">
    <rect id="icon-BAT-LS-01-body" x="505" y="842" width="32" height="46" rx="3" fill="#001a00" stroke="#00ff44" stroke-width="1.5"/>
    <rect id="icon-BAT-LS-01-nub"  x="514" y="836" width="14" height="8"  rx="2" fill="#00ff44"/>
    <rect id="icon-BAT-LS-01-b5"   x="509" y="878" width="24" height="6"  rx="1" fill="#00ff44"/>
    <rect id="icon-BAT-LS-01-b4"   x="509" y="870" width="24" height="6"  rx="1" fill="#00ff44"/>
    <rect id="icon-BAT-LS-01-b3"   x="509" y="862" width="24" height="6"  rx="1" fill="#00ff44"/>
    <rect id="icon-BAT-LS-01-b2"   x="509" y="854" width="24" height="6"  rx="1" fill="#00ff44"/>
    <rect id="icon-BAT-LS-01-b1"   x="509" y="846" width="24" height="6"  rx="1" fill="#00ff44"/>
    <path id="icon-BAT-LS-01-bolt"
          d="M523 848 L518 862 L523 862 L518 882 L529 858 L523 858 Z"
          fill="#0a0e1a" opacity="0.65"/>
  </g>

  <!-- BATTERY: BAT-MF-01  (Mainframe, top-left) -->
  <g id="icon-BAT-MF-01" class="power-icon">
    <rect id="icon-BAT-MF-01-body" x="613" y="582" width="32" height="46" rx="3" fill="#001a00" stroke="#00ff44" stroke-width="1.5"/>
    <rect id="icon-BAT-MF-01-nub"  x="622" y="576" width="14" height="8"  rx="2" fill="#00ff44"/>
    <rect id="icon-BAT-MF-01-b5"   x="617" y="618" width="24" height="6"  rx="1" fill="#00ff44"/>
    <rect id="icon-BAT-MF-01-b4"   x="617" y="610" width="24" height="6"  rx="1" fill="#00ff44"/>
    <rect id="icon-BAT-MF-01-b3"   x="617" y="602" width="24" height="6"  rx="1" fill="#00ff44"/>
    <rect id="icon-BAT-MF-01-b2"   x="617" y="594" width="24" height="6"  rx="1" fill="#00ff44"/>
    <rect id="icon-BAT-MF-01-b1"   x="617" y="586" width="24" height="6"  rx="1" fill="#00ff44"/>
    <path id="icon-BAT-MF-01-bolt"
          d="M631 588 L626 602 L631 602 L626 622 L637 598 L631 598 Z"
          fill="#0a0e1a" opacity="0.65"/>
  </g>

</svg>